<?xml version="1.0" encoding="UTF-8" standalone="no"?>
<!-- Created with Inkscape (http://www.inkscape.org/) -->

<svg
   xmlns:dc="http://purl.org/dc/elements/1.1/"
   xmlns:cc="http://creativecommons.org/ns#"
   xmlns:rdf="http://www.w3.org/1999/02/22-rdf-syntax-ns#"
   xmlns:svg="http://www.w3.org/2000/svg"
   xmlns="http://www.w3.org/2000/svg"
   xmlns:sodipodi="http://sodipodi.sourceforge.net/DTD/sodipodi-0.dtd"
   xmlns:inkscape="http://www.inkscape.org/namespaces/inkscape"
   width="400"
   height="400"
   id="svg2"
   version="1.1"
   inkscape:version="0.48.4 r9939"
   sodipodi:docname="arks.svg">
   <style>
  @-moz-keyframes twirl { 100% { -moz-transform: rotate(360deg); } }
@-webkit-keyframes twirl { 100% { -webkit-transform: rotate(360deg); } }
@keyframes twirl { 100% { -webkit-transform: rotate(360deg); transform:rotate(360deg); } }

.ark1 {
    -webkit-transform-origin: 50% 50%;
    -webkit-animation:twirl 2s linear infinite;
    -moz-animation:twirl 2s linear infinite;
    animation:twirl 2s linear infinite;
}
.ark2 {
-webkit-transform-origin: 50% 50%;
  -webkit-animation:twirl 4s linear infinite;
    -moz-animation:twirl 4s linear infinite;
    animation:twirl 4s linear infinite;
}
.ark3 {
-webkit-transform-origin: 50% 50%;
   -webkit-animation:twirl 6s linear infinite;
    -moz-animation:twirl 6s linear infinite;
    animation:twirl 6s linear infinite;
}
.ark4 {
-webkit-transform-origin: 50% 50%;
    -webkit-animation:twirl 1s linear infinite;
    -moz-animation:twirl 1s linear infinite;
    animation:twirl 1s linear infinite;
}

</style>
  <defs
     id="defs4" />
  <sodipodi:namedview
     id="base"
     pagecolor="#ffffff"
     bordercolor="#666666"
     borderopacity="1.0"
     inkscape:pageopacity="0.0"
     inkscape:pageshadow="2"
     inkscape:zoom="0.98994949"
     inkscape:cx="66.020754"
     inkscape:cy="307.11448"
     inkscape:document-units="px"
     inkscape:current-layer="layer1"
     showgrid="false"
     inkscape:window-width="1598"
     inkscape:window-height="850"
     inkscape:window-x="0"
     inkscape:window-y="150"
     inkscape:window-maximized="1" />
  <metadata
     id="metadata7">
    <rdf:RDF>
      <cc:Work
         rdf:about="">
        <dc:format>image/svg+xml</dc:format>
        <dc:type
           rdf:resource="http://purl.org/dc/dcmitype/StillImage" />
        <dc:title />
      </cc:Work>
    </rdf:RDF>
  </metadata>
  <g
     inkscape:label="Layer 1"
     inkscape:groupmode="layer"
     id="layer1"
     transform="translate(0,-652.36218)">
    <path
       class="ark1"
       style="fill:#35ccb1;fill-opacity:1;stroke-width:1.20500004000000005;stroke-miterlimit:4;stroke-dasharray:none"
       d="M 228.28125 151 L 228.03125 151.4375 L 221.21875 163.25 C 233.89961 170.58997 242.4375 184.29902 242.4375 200 L 256.0625 200 L 256.5625 200 C 256.5625 179.05894 245.19145 160.77824 228.28125 151 z "
       transform="translate(0,652.36218)"
       id="path3100"> 
                    
    </path>
    <path
       class="ark2"
       style="fill:#29333a;fill-opacity:1;stroke-width:1.20500004000000005;stroke-miterlimit:4;stroke-dasharray:none"
       d="M 200 128.28125 C 186.92515 128.28125 174.68009 131.79433 164.125 137.90625 L 171.71875 151 C 180.03687 146.19009 189.69911 143.4375 200 143.4375 C 231.24195 143.4375 256.5625 168.75805 256.5625 200 L 271.71875 200 C 271.71875 160.38968 239.61032 128.28125 200 128.28125 z M 163.4375 138.3125 C 162.98668 138.58031 162.53813 138.84766 162.09375 139.125 C 162.53924 138.84762 162.98471 138.58084 163.4375 138.3125 z M 139.09375 162.15625 C 138.81677 162.60101 138.54869 163.0488 138.28125 163.5 C 138.54838 163.04824 138.81675 162.60209 139.09375 162.15625 z M 134.5625 170.65625 C 134.00298 171.90161 133.45805 173.15563 132.96875 174.4375 C 133.45829 173.15429 134.00113 171.90715 134.5625 170.65625 z M 132.875 174.6875 C 132.64526 175.29624 132.43228 175.91474 132.21875 176.53125 C 132.43299 175.91257 132.64416 175.29941 132.875 174.6875 z M 130.71875 181.40625 C 130.55191 182.02965 130.40034 182.65128 130.25 183.28125 C 130.39987 182.65622 130.55242 182.02593 130.71875 181.40625 z M 129.21875 188.46875 C 129.13652 188.97795 129.0402 189.48727 128.96875 190 C 129.04058 189.48926 129.13608 188.9768 129.21875 188.46875 z "
       id="path3098"
       transform="translate(0,652.36218)" />
    <path
       class="ark3"
       style="fill:#ffffff;fill-opacity:1;stroke-width:1.20500004000000005;stroke-miterlimit:4;stroke-dasharray:none"
       d="m 96.610489,886.02112 c -0.505472,-1.63096 -0.962827,-3.2675 -1.391022,-4.91933 0.428257,1.64366 0.881771,3.28554 1.391022,4.91933 z m 15.306721,30.88442 c 0.43675,0.61364 0.8898,1.2137 1.33777,1.81611 -0.44759,-0.60071 -0.90366,-1.20743 -1.33777,-1.81611 z M 95.13865,880.79352 c -1.051026,-4.10397 -1.86678,-8.27729 -2.434578,-12.47672 0.562117,4.16703 1.370515,8.34291 2.434578,12.47672 z M 92.3939,865.75611 c -0.09587,-0.8639 -0.192473,-1.7498 -0.267696,-2.61617 0.07525,0.87661 0.170749,1.73959 0.267696,2.61617 z m 33.3293,66.98075 c 1.99458,1.88531 4.06178,3.6826 6.18009,5.39982 -2.13873,-1.73182 -4.20418,-3.53601 -6.18009,-5.39982 z m 6.18009,5.39982 c 0.70996,0.57553 1.42654,1.14197 2.14955,1.69833 -0.73084,-0.56182 -1.43664,-1.12105 -2.14955,-1.69833 z m 2.14955,1.69833 c 0.73649,0.56675 1.45613,1.12426 2.20572,1.67094 -0.74868,-0.54598 -1.47489,-1.10911 -2.20572,-1.67094 z m 2.20572,1.67094 c 0.75621,0.55152 1.5209,1.09888 2.28998,1.62983 -0.76644,-0.52974 -1.54131,-1.08385 -2.28998,-1.62983 z m 2.28998,1.62983 c 0.76343,0.52707 1.5431,1.03963 2.31876,1.54627 -0.78412,-0.51312 -1.55232,-1.01652 -2.31876,-1.54627 z m 2.31876,1.54627 c 0.78911,0.51543 1.57365,1.02474 2.37493,1.51886 -0.79227,-0.49025 -1.59081,-1.00575 -2.37493,-1.51886 z m 2.37493,1.51886 c 1.57746,0.97277 3.18622,1.91143 4.80811,2.80072 -1.61485,-0.88957 -3.22354,-1.82021 -4.80811,-2.80072 z M 91.94208,860.55255 c -0.0545,-0.86844 -0.09425,-1.74468 -0.127949,-2.6148 0.0326,0.8723 0.07406,1.74178 0.127949,2.6148 z m -0.127949,-2.6148 c -0.0337,-0.87011 -0.04527,-1.74271 -0.05808,-2.6141 0.01148,0.86806 0.02559,1.74497 0.05808,2.6141 z m -0.05808,-2.6141 c -0.01132,-0.76938 -0.02407,-1.55014 -0.01905,-2.32022 -0.0064,0.7742 0.0088,1.54489 0.01905,2.32022 z m 0.05168,-5.24053 c 0.0292,-0.87278 0.05942,-1.75354 0.109759,-2.62643 -0.05204,0.87181 -0.07878,1.75239 -0.109759,2.62643 z m 0.109759,-2.62643 c 0.05034,-0.87288 0.121778,-1.72506 0.193332,-2.59764 -0.0723,0.8629 -0.141669,1.73218 -0.193332,2.59764 z m 0.193332,-2.59764 c 0.07155,-0.87259 0.156658,-1.75315 0.249507,-2.62505 -0.09482,0.87529 -0.175919,1.7467 -0.249507,2.62505 z m 0.249507,-2.62505 c 0.07998,-0.75098 0.16393,-1.49739 0.25976,-2.24759 -0.09689,0.74842 -0.178404,1.49666 -0.25976,2.24759 z m 55.940033,106.92383 c 1.52935,0.83319 3.06528,1.60768 4.63072,2.3657 -1.55422,-0.75655 -3.10074,-1.52827 -4.63072,-2.3657 z M 102.63661,806.41676 c 0.75656,-1.55422 1.52827,-3.10073 2.36571,-4.63071 -0.8332,1.52934 -1.60768,3.06527 -2.36571,4.63071 z m 2.52191,-4.88074 c 0.88956,-1.61486 1.8202,-3.22355 2.80071,-4.80811 -0.97277,1.57745 -1.91143,3.18622 -2.80071,4.80811 z m 2.80071,-4.80811 c 0.49026,-0.79228 1.00575,-1.59082 1.51887,-2.37494 -0.51543,0.78911 -1.02474,1.57365 -1.51887,2.37494 z m 1.51887,-2.37494 c 3.34975,-5.11895 7.11147,-9.93142 11.23887,-14.38238 -4.16851,4.49651 -7.92538,9.30951 -11.23887,14.38238 z m 11.23887,-14.38238 c 0.82548,-0.89019 1.65928,-1.75526 2.51355,-2.61669 -0.85729,0.86419 -1.68872,1.72696 -2.51355,2.61669 z m 2.51355,-2.61669 c 4.27135,-4.30714 8.89364,-8.24825 13.82679,-11.78525 -4.98581,3.56641 -9.60405,7.52848 -13.82679,11.78525 z m 13.82679,-11.78525 c 1.93973,-1.39076 3.91949,-2.71788 5.95115,-3.98041 -2.0403,1.26499 -4.02102,2.59975 -5.95115,3.98041 z m 49.44342,195.9714 c 0.74842,0.0969 1.49666,0.1784 2.2476,0.25976 -0.75099,-0.08 -1.49739,-0.16393 -2.2476,-0.25976 z m 2.2476,0.25976 c 0.87529,0.0948 1.7467,0.17592 2.62504,0.2495 -0.87259,-0.0716 -1.75314,-0.15665 -2.62504,-0.2495 z m 2.62504,0.2495 c 0.86291,0.0723 1.73218,0.14167 2.59765,0.19334 -0.87289,-0.0503 -1.72506,-0.12178 -2.59765,-0.19334 z m 2.59765,0.19334 c 0.87181,0.052 1.75239,0.0788 2.62643,0.10976 -0.87279,-0.0292 -1.75354,-0.0594 -2.62643,-0.10976 z m 5.54674,0.18048 c 0.77419,0.006 1.54489,-0.009 2.32022,-0.019 -0.76938,0.0113 -1.55014,0.0241 -2.32022,0.019 z m 2.32022,-0.019 c 0.86805,-0.0115 1.74497,-0.0256 2.6141,-0.0581 -0.87012,0.0337 -1.74271,0.0453 -2.6141,0.0581 z m 2.6141,-0.0581 c 0.8723,-0.0326 1.74178,-0.0741 2.61479,-0.12795 -0.86843,0.0545 -1.74467,0.0942 -2.61479,0.12795 z m 5.20219,-0.31207 c 0.87661,-0.0752 1.73959,-0.17074 2.61617,-0.2677 -0.86391,0.0959 -1.7498,0.19248 -2.61617,0.2677 z m 5.17686,-0.57787 c 4.16703,-0.56212 8.3429,-1.37051 12.47672,-2.43458 -4.10397,1.05103 -8.27729,1.86679 -12.47672,2.43458 z m 12.78499,-2.51539 c 1.64366,-0.42826 3.28554,-0.88177 4.91933,-1.39103 -1.63096,0.50548 -3.26751,0.96283 -4.91933,1.39103 z M 143.12081,761.53345 c 0.99907,-0.61927 2.01669,-1.24152 3.03687,-1.82887 -1.02864,0.59082 -2.03436,1.20889 -3.03687,1.82887 z m 6.57794,-3.76458 c 1.00624,-0.53061 2.0096,-1.04969 3.03412,-1.54938 -1.02211,0.49852 -2.03478,1.02336 -3.03412,1.54938 z m 3.03412,-1.54938 8.41125,17.24561 c 44.37654,-21.64388 97.90703,-3.21186 119.55092,41.16469 14.30779,29.33531 11.09826,62.68246 -5.53751,88.16256 l 16.03885,10.50049 c 20.21565,-30.94969 24.12685,-71.43473 6.74427,-107.0743 -26.29059,-53.90371 -91.30407,-76.28964 -145.20778,-49.99905 z m 138.46351,157.07335 c -0.51312,0.78413 -1.01652,1.55232 -1.54627,2.31876 0.52707,-0.76343 1.03963,-1.5431 1.54627,-2.31876 z m -1.54627,2.31876 c -0.52974,0.76645 -1.08385,1.54132 -1.62983,2.28999 0.55152,-0.75622 1.09888,-1.52091 1.62983,-2.28999 z m -1.62983,2.28999 c -0.54598,0.74867 -1.10911,1.47489 -1.67094,2.20572 0.56674,-0.73649 1.12425,-1.45614 1.67094,-2.20572 z m -1.67094,2.20572 c -0.56182,0.73083 -1.12106,1.43663 -1.69833,2.14955 0.57553,-0.70996 1.14197,-1.42655 1.69833,-2.14955 z m -1.69833,2.14955 c -1.73183,2.13872 -3.53602,4.20417 -5.39982,6.18008 1.88531,-1.99457 3.6826,-4.06178 5.39982,-6.18008 z m -21.23115,19.98608 c 0.61365,-0.43676 1.21371,-0.8898 1.81611,-1.33777 -0.6007,0.44759 -1.20742,0.90365 -1.81611,1.33777 z"
       id="path2985"
       inkscape:connector-curvature="0" />
    <path
       class="ark4"
       style="fill:#ac9d93;fill-opacity:1;stroke-width:1.20500004000000005;stroke-miterlimit:4;stroke-dasharray:none"
       d="m 200,110.59375 c -27.49392,0 -52.09871,12.40979 -68.5,31.9375 l 13.5625,11.375 c 13.15582,-15.66392 32.88031,-25.625 54.9375,-25.625 39.61032,0 71.71875,32.10843 71.71875,71.71875 l 17.6875,0 c 0,-49.37343 -40.03282,-89.40625 -89.40625,-89.40625 z"
       id="path2985-6"
       inkscape:connector-curvature="0"
       inkscape:transform-center-x="-38.385796"
       inkscape:transform-center-y="404.06102"
       transform="translate(0,652.36218)" />
  </g>
</svg>
